<svg version="1.1" xmlns="http://www.w3.org/2000/svg" style="display: block;" viewBox="0 0 2048 2048" width="1024" height="1024" preserveAspectRatio="none">
<path transform="translate(0,0)" fill="rgb(61,61,61)" d="M 1322.05 564.086 C 1341.59 563.745 1381.91 594.484 1398.39 606.525 C 1658.31 796.413 1698.81 1185.07 1505.69 1436.78 C 1407.74 1565.65 1262.09 1649.73 1101.51 1670.08 C 942.998 1690.34 782.918 1646.96 656.33 1549.44 C 606.768 1510.62 563.724 1464.13 528.825 1411.74 C 515.698 1391.8 492.386 1356.77 533.694 1352.33 C 551.478 1350.42 561.195 1376.27 571.01 1388.87 C 589.815 1413.01 610.498 1444.19 633.734 1464.21 C 643.996 1461.12 669.85 1451.29 680.792 1446.83 C 725.93 1428.4 795.028 1409.03 830.463 1377.03 C 848.552 1360.69 844.826 1311.03 843.944 1287.12 C 806.511 1242.26 791.624 1194.49 779.381 1138.96 C 762.068 1128.96 757.949 1125.85 744.166 1111.35 C 711.661 1072.86 701.297 997.031 724.325 951.075 C 730.243 939.266 739.779 935.414 751.659 932.311 C 742.206 821.683 758.794 722.341 855.389 652.27 C 917.999 607.332 996.027 589.407 1071.97 602.515 C 1144.79 613.969 1209.93 654.252 1252.7 714.28 C 1290.56 767.878 1303.2 831.923 1300.52 896.505 C 1299.97 909.619 1299.77 919.653 1297.55 932.639 C 1310.15 935.043 1319.92 940.904 1325.59 953.045 C 1341.5 987.133 1338.69 1031.05 1328.04 1066.12 C 1317.36 1101.31 1298.42 1122.6 1266.22 1139.23 C 1265.46 1148.88 1262 1162.22 1259.46 1171.83 C 1247.47 1217.18 1229.99 1249.96 1201.87 1287.01 C 1201.74 1311.01 1199.59 1342.86 1207.96 1365.21 C 1217.54 1388.07 1247.07 1397.76 1267.27 1407.36 C 1315.5 1430.26 1369.9 1443.11 1418.32 1464.04 C 1429.69 1451.73 1441.15 1440.12 1452.01 1427.27 C 1493.14 1378.98 1525.24 1323.67 1546.77 1263.99 C 1630.59 1030.24 1553.67 769.639 1351.3 630.519 C 1339.47 622.382 1310.55 607.302 1305.34 595.359 C 1303.3 590.7 1303.26 585.411 1305.22 580.721 C 1308.85 571.868 1313.36 567.527 1322.05 564.086 z M 673.444 1500.88 C 687.621 1514.41 714.845 1532.76 731.422 1543.11 C 825.996 1602.14 931.867 1629.94 1043.26 1626.09 C 1097.82 1624.2 1129.98 1618.45 1182.24 1604.98 C 1266.73 1579.61 1310.23 1551.82 1379.49 1501.16 C 1357.48 1495.14 1335.09 1485.06 1313.63 1477.1 C 1282.5 1465.57 1251.9 1453.09 1221.68 1439.41 C 1170.43 1416.2 1152.86 1378.35 1156.31 1323.31 C 1142.87 1331.51 1131.9 1338.41 1117.56 1344.98 C 1071.03 1366.33 1018.64 1371.29 968.925 1359.06 C 939.424 1351.8 916.336 1341.12 891.952 1323.32 C 891.078 1379.75 879.889 1412.18 826.222 1438.62 C 799.188 1451.94 771.244 1462.82 743.228 1473.95 C 720.81 1482.54 695.911 1493.37 673.444 1500.88 z M 1000.64 646.364 C 931.168 656.075 883.399 678.337 838.923 735.532 C 814.327 767.162 802.301 805.415 797.543 844.891 C 794.928 869.854 795.566 895.49 796.305 920.585 C 796.707 934.239 800.13 947.736 799.661 961.877 C 798.886 985.194 774.521 967.919 764.323 979.483 C 756.437 988.424 759.855 1010.39 760.053 1021.55 C 762.022 1045.12 768.254 1069.91 786.08 1086.52 C 792.359 1094.75 817.455 1097.99 820.85 1106.93 C 828.632 1127.41 828.222 1149.74 835.227 1171 C 868.046 1270.59 944.626 1323.93 1048.22 1315.86 C 1106.07 1305.35 1147.34 1280.23 1181.94 1232.12 C 1211.39 1191.18 1214.22 1153.78 1226.16 1107.73 C 1232.51 1096.98 1249.89 1097.96 1259.49 1089.63 C 1285.62 1066.94 1288 1040.02 1290.38 1008 C 1294.74 949.579 1261.56 993.723 1250.82 965.714 C 1249.84 950.679 1253.48 925.77 1254.54 911.192 C 1261.02 821.984 1235.66 740.308 1159.59 687.382 C 1117.2 657.892 1052.83 638.864 1000.64 646.364 z"/>
<path transform="translate(0,0)" fill="rgb(61,61,61)" d="M 513.921 1254.72 C 514.91 1300.25 506.617 1297.15 465.195 1297.21 L 414.244 1297.26 L 364.362 1297.27 C 344.552 1297.26 319.823 1302.4 320.109 1274.55 C 320.649 1222.08 319.349 1169.41 320.669 1116.99 C 321.073 1100.93 333.163 1098.1 346.062 1098.06 L 440.171 1098.06 C 457.407 1098.06 474.411 1097.66 491.622 1098.71 C 514.939 1100.14 514.104 1117.1 513.963 1135.49 L 514.093 1159.02 C 531.913 1148.98 549.668 1138.82 567.357 1128.54 C 577.45 1122.7 587.793 1115.57 598.58 1111.23 C 603.668 1109.19 610.626 1107.23 616.072 1108.98 C 619.796 1110.18 622.506 1113.75 624.159 1117.13 C 625.288 1119.45 625.565 1121.83 625.737 1124.37 C 626.757 1139.43 627.263 1261.98 624.282 1270.02 C 622.309 1275.33 619.293 1278.98 613.968 1281.12 C 606.756 1284.02 596.64 1279.21 590.008 1276.14 C 564.486 1264.31 539.054 1251.68 514.074 1238.75 L 513.921 1254.72 z"/>
<path transform="translate(0,0)" fill="rgb(0,0,0)" d="M 513.921 1254.72 C 514.91 1300.25 506.617 1297.15 465.195 1297.21 L 414.244 1297.26 L 364.362 1297.27 C 344.552 1297.26 319.823 1302.4 320.109 1274.55 C 320.649 1222.08 319.349 1169.41 320.669 1116.99 C 321.073 1100.93 333.163 1098.1 346.062 1098.06 L 440.171 1098.06 C 457.407 1098.06 474.411 1097.66 491.622 1098.71 C 514.939 1100.14 514.104 1117.1 513.963 1135.49 C 511.022 1122.92 511.73 1111.58 501.834 1103.88 C 496.88 1102.64 491.95 1102.25 486.866 1102.08 C 470.694 1101.52 336.424 1100.57 331.696 1103.33 C 328.986 1104.91 326.644 1108.69 324.825 1111.21 C 322.715 1123.47 323.391 1139.5 323.485 1152.16 C 323.791 1193.41 323.181 1234.57 323.943 1275.83 C 324.125 1285.65 326.642 1292.92 338.013 1293.89 C 388.076 1295.76 438.624 1295.06 488.735 1294.79 C 516.405 1294.61 507.921 1271.33 513.921 1254.72 z"/>
<path transform="translate(0,0)" fill="rgb(61,61,61)" d="M 1182.71 302.32 C 1231.07 300.361 1261.04 319.969 1270.66 369.022 C 1281.52 424.407 1274.86 502.15 1208.28 515.66 C 1122.86 522.511 1111.01 457.287 1116.61 387.363 C 1120.26 341.8 1136.66 312.274 1182.71 302.32 z M 1197.74 479.967 C 1229.61 473.102 1233.5 445.633 1234.27 417.484 C 1235.12 386.414 1232.67 341.029 1192.98 338.308 C 1183.43 339.862 1173.74 342.949 1168.17 351.49 C 1155.58 370.805 1154.69 396.408 1155.29 418.714 C 1156.07 448.088 1161.04 480.386 1197.74 479.967 z"/>
<path transform="translate(0,0)" fill="rgb(61,61,61)" d="M 715.561 565.092 C 738.493 563.162 751.435 590.433 737.026 603.138 C 724.577 614.113 704.117 625.863 689.805 636.883 C 654.503 664.096 622.571 695.419 594.683 730.19 C 525.413 815.335 485.888 916.962 476.748 1025.33 C 475.554 1039.48 474.911 1045.54 460.088 1050.03 C 454.239 1050.24 443.511 1050.9 438.632 1048.23 C 424.507 1040.5 430.703 1011.36 432.329 998.59 C 439.858 936.098 457.312 875.209 484.032 818.218 C 525.378 731.063 587.409 655.342 664.721 597.651 C 679.018 586.793 699.07 571.028 715.561 565.092 z"/>
<path transform="translate(0,0)" fill="rgb(61,61,61)" d="M 978.617 393.357 C 996.246 379.77 1008.51 377.304 1030.19 377.687 C 1071.55 378.416 1097.45 404.944 1093.84 446.905 C 1089.6 494.014 1051.77 520.931 1005.98 515.791 C 938.578 508.226 930.522 440.244 937.077 385.254 C 940.269 358.473 948.261 333.152 970.656 316.273 C 1000.85 293.511 1053.14 296.689 1076.28 328.156 C 1081.29 334.772 1089.87 351.779 1087.53 359.826 C 1082.12 362.658 1055.64 362.104 1047.92 362.197 C 1043.69 351.047 1041.23 346.711 1029.55 341.003 C 1029.07 340.77 1025.51 339.293 1025.19 339.077 C 984.723 338.692 983.235 360.037 978.617 393.357 z M 1026.96 478.225 C 1047.38 470.519 1060.15 452.268 1050.99 430.567 C 1047.69 422.689 1041.18 416.593 1033.11 413.806 C 1025.05 410.937 1017.24 411.701 1008.85 412.158 C 963.274 424.033 978.169 486.684 1026.96 478.225 z"/>
<path transform="translate(0,0)" fill="rgb(0,0,0)" d="M 1076.28 328.156 C 1081.29 334.772 1089.87 351.779 1087.53 359.826 C 1082.12 362.658 1055.64 362.104 1047.92 362.197 C 1043.69 351.047 1041.23 346.711 1029.55 341.003 C 1029.07 340.77 1025.51 339.293 1025.19 339.077 C 1033.01 333.201 1047 352.947 1049.88 359.056 C 1061.51 358.995 1073.11 359.098 1084.7 358.26 C 1082.97 343.597 1078.84 340.402 1076.28 328.156 z"/>
<path transform="translate(0,0)" fill="rgb(61,61,61)" d="M 817.836 302.273 C 837.811 300.667 856.067 301.514 873.162 312.529 C 904.877 332.964 909.302 382.175 872.368 399.792 C 878.568 402.482 884.056 405.057 889.443 409.177 C 913.562 427.625 909.48 469.617 891.488 491.129 C 878.97 506.306 860.532 514.504 840.953 515.902 C 799.845 518.837 765.283 501.143 761.785 456.633 C 769.09 456.004 779.698 456.15 787.25 456.03 L 799.117 456.025 C 804.798 472.03 811.975 479.861 830.074 481.181 C 848.217 482.505 866.279 470.677 866.173 451.12 C 865.992 417.717 838.581 421.969 814.905 421.764 C 813.921 410.543 814.256 401.395 814.429 390.144 C 820.307 389.958 826.481 390.494 832.403 390.014 C 872.079 386.8 864.46 328.512 822.922 337.441 C 805.207 341.249 807.694 347.482 799.544 360.716 C 797.192 364.535 769.061 363.083 763.294 363.06 C 766.491 326.401 782.079 309.951 817.836 302.273 z"/>
<path transform="translate(0,0)" fill="rgb(61,61,61)" d="M 1326.9 301.982 C 1350.39 298.613 1372.18 314.862 1375.65 338.331 C 1379.12 361.801 1362.97 383.661 1339.52 387.236 C 1315.91 390.834 1293.89 374.558 1290.39 350.942 C 1286.9 327.326 1303.27 305.371 1326.9 301.982 z M 1333.6 364.469 C 1339.91 363.056 1344.05 362.085 1347.91 356.43 C 1351.27 351.526 1352.37 345.418 1350.93 339.651 C 1348.53 330.16 1341.93 326.543 1332.9 325.349 C 1309.45 328.718 1307.11 359.727 1333.6 364.469 z"/>
</svg>